<?xml version="1.0" encoding="UTF-8" standalone="no"?>
<!DOCTYPE svg PUBLIC "-//W3C//DTD SVG 1.1//EN"
 "http://www.w3.org/Graphics/SVG/1.1/DTD/svg11.dtd">
<!-- Generated by graphviz version 2.43.0 (0)
 -->
<!-- Title: snakemake_dag Pages: 1 -->
<svg width="165pt" height="188pt"
 viewBox="0.00 0.00 165.07 188.00" xmlns="http://www.w3.org/2000/svg" xmlns:xlink="http://www.w3.org/1999/xlink">
<g id="graph0" class="graph" transform="scale(1 1) rotate(0) translate(4 184)">
<title>snakemake_dag</title>
<polygon fill="white" stroke="transparent" points="-4,4 -4,-184 161.07,-184 161.07,4 -4,4"/>
<!-- 0 -->
<g id="node1" class="node">
<title>0</title>
<path fill="none" stroke="#d6d856" stroke-width="2" d="M63.07,-36C63.07,-36 33.07,-36 33.07,-36 27.07,-36 21.07,-30 21.07,-24 21.07,-24 21.07,-12 21.07,-12 21.07,-6 27.07,0 33.07,0 33.07,0 63.07,0 63.07,0 69.07,0 75.07,-6 75.07,-12 75.07,-12 75.07,-24 75.07,-24 75.07,-30 69.07,-36 63.07,-36"/>
<text text-anchor="middle" x="48.07" y="-15.5" font-family="sans" font-size="10.00">all</text>
</g>
<!-- 1 -->
<g id="node2" class="node">
<title>1</title>
<path fill="none" stroke="#56d8d8" stroke-width="2" d="M68.57,-180C68.57,-180 27.57,-180 27.57,-180 21.57,-180 15.57,-174 15.57,-168 15.57,-168 15.57,-156 15.57,-156 15.57,-150 21.57,-144 27.57,-144 27.57,-144 68.57,-144 68.57,-144 74.57,-144 80.57,-150 80.57,-156 80.57,-156 80.57,-168 80.57,-168 80.57,-174 74.57,-180 68.57,-180"/>
<text text-anchor="middle" x="48.07" y="-159.5" font-family="sans" font-size="10.00">data_prep</text>
</g>
<!-- 1&#45;&gt;0 -->
<g id="edge1" class="edge">
<title>1&#45;&gt;0</title>
<path fill="none" stroke="grey" stroke-width="2" d="M28.6,-143.92C19.25,-134.4 9.03,-121.72 4.07,-108 -1.36,-92.95 -1.36,-87.05 4.07,-72 7.83,-61.6 14.61,-51.8 21.74,-43.52"/>
<polygon fill="grey" stroke="grey" stroke-width="2" points="24.4,-45.81 28.6,-36.08 19.25,-41.06 24.4,-45.81"/>
</g>
<!-- 2 -->
<g id="node3" class="node">
<title>2</title>
<path fill="none" stroke="#59d856" stroke-width="2" d="M70.57,-108C70.57,-108 25.57,-108 25.57,-108 19.57,-108 13.57,-102 13.57,-96 13.57,-96 13.57,-84 13.57,-84 13.57,-78 19.57,-72 25.57,-72 25.57,-72 70.57,-72 70.57,-72 76.57,-72 82.57,-78 82.57,-84 82.57,-84 82.57,-96 82.57,-96 82.57,-102 76.57,-108 70.57,-108"/>
<text text-anchor="middle" x="48.07" y="-87.5" font-family="sans" font-size="10.00">correlation</text>
</g>
<!-- 1&#45;&gt;2 -->
<g id="edge4" class="edge">
<title>1&#45;&gt;2</title>
<path fill="none" stroke="grey" stroke-width="2" d="M48.07,-143.7C48.07,-135.98 48.07,-126.71 48.07,-118.11"/>
<polygon fill="grey" stroke="grey" stroke-width="2" points="51.57,-118.1 48.07,-108.1 44.57,-118.1 51.57,-118.1"/>
</g>
<!-- 3 -->
<g id="node4" class="node">
<title>3</title>
<path fill="none" stroke="#d85656" stroke-width="2" d="M145.07,-108C145.07,-108 113.07,-108 113.07,-108 107.07,-108 101.07,-102 101.07,-96 101.07,-96 101.07,-84 101.07,-84 101.07,-78 107.07,-72 113.07,-72 113.07,-72 145.07,-72 145.07,-72 151.07,-72 157.07,-78 157.07,-84 157.07,-84 157.07,-96 157.07,-96 157.07,-102 151.07,-108 145.07,-108"/>
<text text-anchor="middle" x="129.07" y="-87.5" font-family="sans" font-size="10.00">survival</text>
</g>
<!-- 1&#45;&gt;3 -->
<g id="edge5" class="edge">
<title>1&#45;&gt;3</title>
<path fill="none" stroke="grey" stroke-width="2" d="M68.1,-143.7C78.2,-134.97 90.61,-124.24 101.59,-114.75"/>
<polygon fill="grey" stroke="grey" stroke-width="2" points="104,-117.29 109.28,-108.1 99.43,-111.99 104,-117.29"/>
</g>
<!-- 2&#45;&gt;0 -->
<g id="edge2" class="edge">
<title>2&#45;&gt;0</title>
<path fill="none" stroke="grey" stroke-width="2" d="M48.07,-71.7C48.07,-63.98 48.07,-54.71 48.07,-46.11"/>
<polygon fill="grey" stroke="grey" stroke-width="2" points="51.57,-46.1 48.07,-36.1 44.57,-46.1 51.57,-46.1"/>
</g>
<!-- 3&#45;&gt;0 -->
<g id="edge3" class="edge">
<title>3&#45;&gt;0</title>
<path fill="none" stroke="grey" stroke-width="2" d="M109.05,-71.7C98.95,-62.97 86.54,-52.24 75.56,-42.75"/>
<polygon fill="grey" stroke="grey" stroke-width="2" points="77.72,-39.99 67.87,-36.1 73.14,-45.29 77.72,-39.99"/>
</g>
</g>
</svg>
